<svg width="12" height="21" viewBox="0 0 12 21" fill="none" xmlns="http://www.w3.org/2000/svg">
<path d="M10.2434 20.3959C10.0507 20.397 9.85965 20.36 9.68129 20.2871C9.50293 20.2142 9.34073 20.1068 9.204 19.971L0.425343 11.1923C0.152912 10.9183 0 10.5475 0 10.1611C0 9.77462 0.152912 9.40387 0.425343 9.12978L9.204 0.351123C9.48389 0.111762 9.84375 -0.0132279 10.2118 0.00111004C10.5798 0.0154479 10.9288 0.168058 11.1892 0.42847C11.4496 0.688883 11.6022 1.03793 11.6166 1.40593C11.6309 1.77393 11.5059 2.1338 11.2666 2.41368L3.52591 10.1543L11.2666 17.895C11.4723 18.0987 11.6129 18.3589 11.6706 18.6426C11.7284 18.9263 11.7006 19.2208 11.5909 19.4887C11.4812 19.7566 11.2945 19.9859 11.0544 20.1477C10.8142 20.3094 10.5315 20.3963 10.242 20.3972L10.2434 20.3959Z" fill="black"/>
</svg>
