<svg width="9" height="6" viewBox="0 0 9 6" fill="none" xmlns="http://www.w3.org/2000/svg">
<path d="M4.50135 3.59244L7.29522 1.0858C7.34759 1.03446 7.40981 0.993727 7.47833 0.965931C7.54684 0.938136 7.6203 0.923828 7.69448 0.923828C7.76867 0.923828 7.84212 0.938136 7.91064 0.965931C7.97915 0.993727 8.04137 1.03446 8.09374 1.0858C8.14631 1.13629 8.18807 1.1965 8.21658 1.26292C8.24508 1.32935 8.25977 1.40065 8.25977 1.47267C8.25977 1.5447 8.24508 1.616 8.21658 1.68243C8.18807 1.74885 8.14631 1.80906 8.09374 1.85955L4.89967 4.91597C4.79315 5.0186 4.64955 5.07614 4.49994 5.07614C4.35034 5.07614 4.20674 5.0186 4.10022 4.91597L0.906147 1.85955C0.853571 1.80906 0.811813 1.74885 0.783308 1.68243C0.754802 1.616 0.740121 1.5447 0.740121 1.47267C0.740121 1.40065 0.754802 1.32935 0.783308 1.26292C0.811813 1.1965 0.853571 1.13629 0.906147 1.0858C0.958513 1.03446 1.02074 0.993727 1.08925 0.965931C1.15776 0.938136 1.23122 0.923828 1.30541 0.923828C1.37959 0.923828 1.45305 0.938136 1.52156 0.965931C1.59007 0.993727 1.6523 1.03446 1.70466 1.0858L4.50135 3.59244Z" fill="white"/>
</svg>
