<svg width="21" height="28" viewBox="0 0 21 28" fill="none" xmlns="http://www.w3.org/2000/svg">
<path d="M10.4497 27.1824C9.40365 27.1824 4.43385 21.0172 3.21615 19.0334C1.40005 16.0684 0.300049 14.2778 0.300049 10.8745C0.300049 8.17293 1.36945 5.58201 3.27299 3.67172C5.17653 1.76142 7.75828 0.688232 10.4503 0.688232C13.1423 0.688232 15.7241 1.76142 17.6276 3.67172C19.5311 5.58201 20.6005 8.17293 20.6005 10.8745C20.6005 14.1409 19.5159 15.905 17.7196 18.8292L17.5953 19.0323C16.3402 21.0735 11.476 27.1824 10.4497 27.1824ZM10.4497 5.78219C9.44593 5.78219 8.46465 6.08091 7.63001 6.64058C6.79536 7.20026 6.14484 7.99574 5.76069 8.92644C5.37655 9.85713 5.27604 10.8812 5.47187 11.8693C5.66771 12.8573 6.15109 13.7649 6.8609 14.4772C7.57071 15.1895 8.47505 15.6746 9.45959 15.8711C10.4441 16.0677 11.4646 15.9668 12.392 15.5813C13.3194 15.1958 14.1121 14.5429 14.6698 13.7053C15.2275 12.8677 15.5251 11.883 15.5251 10.8756C15.5237 9.52519 14.9885 8.23051 14.037 7.27563C13.0855 6.32075 11.7954 5.78365 10.4497 5.78219Z" fill="#F52D56"/>
</svg>
